<svg width="20" height="20" viewBox="0 0 20 20" fill="none" xmlns="http://www.w3.org/2000/svg">
<g clip-path="url(#clip0_13_382)">
<path d="M8.21668 15C8.10241 14.9997 7.98945 14.9758 7.88479 14.9299C7.78014 14.8841 7.68604 14.8172 7.60834 14.7334L3.55834 10.425C3.40695 10.2637 3.32585 10.0488 3.33288 9.8277C3.33991 9.60656 3.4345 9.39728 3.59584 9.24588C3.75718 9.09449 3.97206 9.01338 4.19319 9.02042C4.41433 9.02745 4.62362 9.12204 4.77501 9.28338L8.20834 12.9417L15.2167 5.27505C15.2878 5.18648 15.3763 5.11339 15.4767 5.06027C15.5771 5.00714 15.6873 4.9751 15.8005 4.96611C15.9137 4.95713 16.0276 4.97138 16.1351 5.00801C16.2426 5.04463 16.3415 5.10285 16.4257 5.17909C16.5099 5.25532 16.5777 5.34797 16.6248 5.45133C16.6719 5.5547 16.6973 5.6666 16.6996 5.78016C16.7019 5.89373 16.6809 6.00656 16.638 6.11172C16.5951 6.21689 16.5311 6.31217 16.45 6.39171L8.83334 14.725C8.75638 14.8103 8.66261 14.8788 8.55792 14.9261C8.45323 14.9735 8.33989 14.9986 8.22501 15H8.21668Z" fill="#6FB756"/>
</g>
<defs>
<clipPath id="clip0_13_382">
<rect width="20" height="20" fill="white"/>
</clipPath>
</defs>
</svg>
