<svg width="35" height="44" viewBox="0 0 35 44" fill="none" xmlns="http://www.w3.org/2000/svg">
<path d="M8.75 31.9C8.31735 31.9 7.89442 32.029 7.53469 32.2708C7.17496 32.5125 6.89458 32.8561 6.72901 33.2581C6.56345 33.6601 6.52013 34.1024 6.60453 34.5292C6.68894 34.956 6.89728 35.348 7.2032 35.6556C7.50913 35.9633 7.89891 36.1728 8.32324 36.2577C8.74757 36.3426 9.18741 36.299 9.58712 36.1325C9.98683 35.966 10.3285 35.684 10.5688 35.3223C10.8092 34.9605 10.9375 34.5351 10.9375 34.1C10.9375 33.5165 10.707 32.9569 10.2968 32.5444C9.88656 32.1318 9.33016 31.9 8.75 31.9ZM17.5 0C8.75 0 0 3.014 0 8.8V35.2C0 40.986 8.75 44 17.5 44C26.25 44 35 40.986 35 35.2V8.8C35 3.014 26.25 0 17.5 0ZM30.625 35.2C30.625 36.762 25.6375 39.6 17.5 39.6C9.3625 39.6 4.375 36.762 4.375 35.2V28.006C8.47015 29.9639 12.9673 30.9212 17.5 30.8C22.0327 30.9212 26.5298 29.9639 30.625 28.006V35.2ZM30.625 22C30.625 23.562 25.6375 26.4 17.5 26.4C9.3625 26.4 4.375 23.562 4.375 22V14.806C8.47015 16.7639 12.9673 17.7212 17.5 17.6C22.0327 17.7212 26.5298 16.7639 30.625 14.806V22ZM17.5 13.2C9.3625 13.2 4.375 10.362 4.375 8.8C4.375 7.238 9.3625 4.4 17.5 4.4C25.6375 4.4 30.625 7.238 30.625 8.8C30.625 10.362 25.6375 13.2 17.5 13.2ZM8.75 18.7C8.31735 18.7 7.89442 18.829 7.53469 19.0708C7.17496 19.3125 6.89458 19.6561 6.72901 20.0581C6.56345 20.4601 6.52013 20.9024 6.60453 21.3292C6.68894 21.756 6.89728 22.148 7.2032 22.4556C7.50913 22.7633 7.89891 22.9728 8.32324 23.0577C8.74757 23.1426 9.18741 23.099 9.58712 22.9325C9.98683 22.766 10.3285 22.484 10.5688 22.1223C10.8092 21.7605 10.9375 21.3351 10.9375 20.9C10.9375 20.3165 10.707 19.7569 10.2968 19.3444C9.88656 18.9318 9.33016 18.7 8.75 18.7Z" fill="#7AC58D"/>
</svg>
