<svg width="24" height="24" viewBox="0 0 24 24" fill="none" xmlns="http://www.w3.org/2000/svg">
<path d="M4.644 4.80005H20.544C22.044 4.80005 22.8 5.50805 22.8 6.94805V17.052C22.8 18.48 22.044 19.2 20.544 19.2H4.644C3.144 19.2 2.388 18.48 2.388 17.052V6.94805C2.388 5.50805 3.144 4.80005 4.644 4.80005ZM12.588 15.12L20.676 8.48405C20.964 8.24405 21.192 7.69205 20.832 7.20005C20.484 6.70805 19.848 6.69605 19.428 6.99605L12.588 11.628L5.76 6.99605C5.34 6.69605 4.704 6.70805 4.356 7.20005C3.996 7.69205 4.224 8.24405 4.512 8.48405L12.588 15.12Z" fill="#A6B0BF"/>
</svg>
