<svg width="47" height="42" viewBox="0 0 47 42" fill="none" xmlns="http://www.w3.org/2000/svg">
<path fill-rule="evenodd" clip-rule="evenodd" d="M20.6163 1.08321C21.4268 0.384236 22.4592 0 23.5269 0C24.5946 0 25.627 0.384236 26.4375 1.08321L40.6014 13.2901L46.161 17.7638C46.3903 17.9483 46.5812 18.1764 46.7228 18.4351C46.8644 18.6938 46.954 18.978 46.9864 19.2715C47.0187 19.565 46.9933 19.8621 46.9116 20.1457C46.8298 20.4293 46.6933 20.6939 46.5098 20.9245C46.3263 21.1551 46.0995 21.347 45.8422 21.4895C45.585 21.6319 45.3023 21.7219 45.0105 21.7545C44.7186 21.787 44.4232 21.7615 44.1412 21.6792C43.8591 21.597 43.596 21.4597 43.3667 21.2752L41.4107 19.7016V37.5039C41.4107 38.6963 40.9396 39.8399 40.1012 40.6831C39.2627 41.5263 38.1255 42 36.9397 42H27.9978V30.7597C27.9978 29.5673 27.5268 28.4237 26.6883 27.5805C25.8499 26.7373 24.7127 26.2636 23.5269 26.2636C22.3411 26.2636 21.2039 26.7373 20.3655 27.5805C19.527 28.4237 19.056 29.5673 19.056 30.7597V42H10.1141C8.92832 42 7.79112 41.5263 6.95266 40.6831C6.11419 39.8399 5.64315 38.6963 5.64315 37.5039V19.6993L3.68711 21.273C3.45939 21.4685 3.19493 21.616 2.90942 21.7068C2.62391 21.7976 2.32318 21.8298 2.02506 21.8015C1.72695 21.7731 1.43754 21.6848 1.17401 21.5418C0.910476 21.3989 0.678195 21.2041 0.490953 20.9691C0.303711 20.7341 0.165324 20.4637 0.0840068 20.1739C0.0026899 19.8841 -0.0198995 19.5808 0.0175791 19.282C0.0550578 18.9832 0.151841 18.6951 0.302183 18.4347C0.452525 18.1743 0.653363 17.9469 0.892774 17.766L6.45239 13.2924L20.6163 1.08321Z" fill="#7AC58D"/>
</svg>
