<svg width="16" height="18" viewBox="0 0 16 18" fill="none" xmlns="http://www.w3.org/2000/svg">
<g clip-path="url(#clip0_13_532)">
<path d="M8.00368 4.95708C5.73225 4.95708 3.90011 6.76059 3.90011 8.99653C3.90011 11.2325 5.73225 13.036 8.00368 13.036C10.2751 13.036 12.1073 11.2325 12.1073 8.99653C12.1073 6.76059 10.2751 4.95708 8.00368 4.95708ZM8.00368 11.6227C6.53583 11.6227 5.33583 10.445 5.33583 8.99653C5.33583 7.54809 6.53225 6.37036 8.00368 6.37036C9.47511 6.37036 10.6715 7.54809 10.6715 8.99653C10.6715 10.445 9.47154 11.6227 8.00368 11.6227ZM13.2322 4.79184C13.2322 5.31567 12.8037 5.73403 12.2751 5.73403C11.743 5.73403 11.318 5.31216 11.318 4.79184C11.318 4.27153 11.7465 3.84966 12.2751 3.84966C12.8037 3.84966 13.2322 4.27153 13.2322 4.79184ZM15.9501 5.74809C15.8894 4.48598 15.5965 3.36802 14.6572 2.44692C13.7215 1.52583 12.5858 1.23755 11.3037 1.17427C9.98225 1.10044 6.02154 1.10044 4.70011 1.17427C3.42154 1.23403 2.28583 1.52231 1.34654 2.44341C0.407258 3.3645 0.117972 4.48247 0.0536865 5.74458C-0.0213135 7.04536 -0.0213135 10.9442 0.0536865 12.245C0.114401 13.5071 0.407258 14.625 1.34654 15.5461C2.28583 16.4672 3.41797 16.7555 4.70011 16.8188C6.02154 16.8926 9.98225 16.8926 11.3037 16.8188C12.5858 16.759 13.7215 16.4707 14.6572 15.5461C15.593 14.625 15.8858 13.5071 15.9501 12.245C16.0251 10.9442 16.0251 7.04887 15.9501 5.74809ZM14.243 13.6407C13.9644 14.3297 13.4251 14.8606 12.7215 15.1383C11.668 15.5497 9.16797 15.4547 8.00368 15.4547C6.8394 15.4547 4.33583 15.5461 3.28583 15.1383C2.58583 14.8641 2.04654 14.3332 1.7644 13.6407C1.34654 12.6036 1.44297 10.1426 1.44297 8.99653C1.44297 7.85044 1.35011 5.38598 1.7644 4.35239C2.04297 3.66333 2.58226 3.13247 3.28583 2.85474C4.3394 2.44341 6.8394 2.53833 8.00368 2.53833C9.16797 2.53833 11.6715 2.44692 12.7215 2.85474C13.4215 3.12895 13.9608 3.65981 14.243 4.35239C14.6608 5.3895 14.5644 7.85044 14.5644 8.99653C14.5644 10.1426 14.6608 12.6071 14.243 13.6407Z" fill="#A6B0BF"/>
</g>
<defs>
<clipPath id="clip0_13_532">
<rect width="16" height="18" fill="white"/>
</clipPath>
</defs>
</svg>
