<svg width="34" height="46" viewBox="0 0 34 46" fill="none" xmlns="http://www.w3.org/2000/svg">
<path d="M33.5844 22.5129L11.948 45.5129C11.7186 45.7568 11.4153 45.9198 11.084 45.9771C10.7528 46.0345 10.4117 45.9832 10.1126 45.8308C9.81344 45.6785 9.57252 45.4336 9.42637 45.1331C9.28022 44.8327 9.23682 44.4931 9.30274 44.166L12.1359 30.1112L1.00283 25.9691C0.764926 25.8805 0.552683 25.7352 0.384897 25.5459C0.21711 25.3566 0.098955 25.1292 0.0408926 24.8837C-0.0171697 24.6383 -0.0133482 24.3825 0.0520188 24.1389C0.117386 23.8953 0.242281 23.6714 0.415649 23.4871L22.052 0.487099C22.2814 0.243218 22.5847 0.0802284 22.916 0.0228511C23.2472 -0.0345262 23.5882 0.0168395 23.8874 0.169158C24.1866 0.321476 24.4275 0.566435 24.5736 0.866881C24.7198 1.16733 24.7632 1.50687 24.6973 1.834L21.8641 15.8888L32.9972 20.0309C33.2351 20.1194 33.4473 20.2648 33.6151 20.4541C33.7829 20.6434 33.901 20.8708 33.9591 21.1162C34.0172 21.3617 34.0134 21.6175 33.948 21.8611C33.8826 22.1047 33.7577 22.3286 33.5844 22.5129Z" fill="#7AC58D"/>
</svg>
