<svg width="16" height="15" viewBox="0 0 16 15" fill="none" xmlns="http://www.w3.org/2000/svg">
<g clip-path="url(#clip0_13_536)">
<path d="M3.63281 15V4.87953H0.202508V15H3.63281ZM1.9181 3.49692C3.11431 3.49692 3.85889 2.71978 3.85889 1.74862C3.8366 0.755565 3.11436 0 1.9408 0C0.767434 0 0.00012207 0.75558 0.00012207 1.74862C0.00012207 2.71983 0.74452 3.49692 1.89571 3.49692H1.918H1.9181ZM5.53147 15H8.96177V9.34824C8.96177 9.04576 8.98406 8.7436 9.07465 8.52738C9.32263 7.92304 9.88705 7.29712 10.8346 7.29712C12.0759 7.29712 12.5725 8.2252 12.5725 9.5857V14.9999H16.0026V9.19695C16.0026 6.08834 14.3103 4.64193 12.0533 4.64193C10.2028 4.64193 9.39033 5.65626 8.93895 6.34712H8.96185V4.87932H5.53155C5.57657 5.82897 5.53155 14.9998 5.53155 14.9998L5.53147 15Z" fill="#A6B0BF"/>
</g>
<defs>
<clipPath id="clip0_13_536">
<rect width="16" height="15" fill="white"/>
</clipPath>
</defs>
</svg>
