<svg width="24" height="24" viewBox="0 0 24 24" fill="none" xmlns="http://www.w3.org/2000/svg">
<g clip-path="url(#clip0_13_306)">
<path d="M9.86 18C9.72288 17.9995 9.58732 17.9709 9.46174 17.9158C9.33616 17.8608 9.22324 17.7805 9.13 17.68L4.27 12.51C4.08833 12.3164 3.99101 12.0585 3.99945 11.7932C4.00789 11.5278 4.12139 11.2766 4.315 11.095C4.50861 10.9133 4.76646 10.816 5.03182 10.8244C5.29719 10.8329 5.54833 10.9464 5.73 11.14L9.85 15.53L18.26 6.32997C18.3453 6.22369 18.4515 6.13599 18.572 6.07223C18.6925 6.00848 18.8247 5.97004 18.9606 5.95925C19.0965 5.94847 19.2331 5.96557 19.3621 6.00952C19.4912 6.05347 19.6098 6.12333 19.7109 6.21482C19.8119 6.3063 19.8932 6.41748 19.9497 6.54151C20.0062 6.66555 20.0368 6.79983 20.0395 6.93611C20.0422 7.07239 20.0171 7.20778 19.9656 7.33398C19.9141 7.46018 19.8373 7.57452 19.74 7.66997L10.6 17.67C10.5076 17.7723 10.3951 17.8545 10.2695 17.9113C10.1439 17.9681 10.0079 17.9983 9.87 18H9.86Z" fill="#6FB756"/>
</g>
<defs>
<clipPath id="clip0_13_306">
<rect width="24" height="24" fill="white"/>
</clipPath>
</defs>
</svg>
